<?xml version="1.0" encoding="UTF-8" standalone="no"?>
<svg
   xmlns:osb="http://www.openswatchbook.org/uri/2009/osb"
   xmlns:dc="http://purl.org/dc/elements/1.1/"
   xmlns:cc="http://creativecommons.org/ns#"
   xmlns:rdf="http://www.w3.org/1999/02/22-rdf-syntax-ns#"
   xmlns:svg="http://www.w3.org/2000/svg"
   xmlns="http://www.w3.org/2000/svg"
   xmlns:sodipodi="http://sodipodi.sourceforge.net/DTD/sodipodi-0.dtd"
   xmlns:inkscape="http://www.inkscape.org/namespaces/inkscape"
   width="30"
   height="30"
   viewBox="0 0 7.9374997 7.9374997"
   version="1.1"
   id="svg8"
   inkscape:version="1.0.1 (3bc2e813f5, 2020-09-07)"
   sodipodi:docname="logo.svg">
  <defs
     id="defs2">
    <linearGradient
       id="linearGradient2852"
       osb:paint="solid">
      <stop
         style="stop-color:#1e65b8;stop-opacity:1;"
         offset="0"
         id="stop2850" />
    </linearGradient>
    <linearGradient
       id="linearGradient865"
       osb:paint="solid">
      <stop
         style="stop-color:#2c5aa0;stop-opacity:1;"
         offset="0"
         id="stop863" />
    </linearGradient>
  </defs>
  <sodipodi:namedview
     id="base"
     pagecolor="#ffffff"
     bordercolor="#666666"
     borderopacity="1.0"
     inkscape:pageopacity="0.0"
     inkscape:pageshadow="2"
     inkscape:zoom="7.9195959"
     inkscape:cx="2.6324468"
     inkscape:cy="33.372111"
     inkscape:document-units="mm"
     inkscape:current-layer="layer1"
     inkscape:document-rotation="0"
     showgrid="false"
     inkscape:window-width="1431"
     inkscape:window-height="1030"
     inkscape:window-x="96"
     inkscape:window-y="0"
     inkscape:window-maximized="0"
     units="px" />
  <metadata
     id="metadata5">
    <rdf:RDF>
      <cc:Work
         rdf:about="">
        <dc:format>image/svg+xml</dc:format>
        <dc:type
           rdf:resource="http://purl.org/dc/dcmitype/StillImage" />
        <dc:title></dc:title>
      </cc:Work>
    </rdf:RDF>
  </metadata>
  <g
     inkscape:label="Layer 1"
     inkscape:groupmode="layer"
     id="layer1"
     transform="translate(-71.534172,-111.45987)">
    <path
       style="fill:#1e65b8;fill-opacity:1;stroke:#1e65b8;stroke-width:0;stroke-linecap:butt;stroke-linejoin:miter;stroke-miterlimit:4;stroke-dasharray:none;stroke-opacity:1"
       d="m 72.641565,116.58345 c -1.043791,0.48503 -0.971296,1.88872 0.01848,2.33031 0.922955,0.31512 1.761957,-0.42682 2.328349,-1.10967 -0.619757,-0.7322 -1.466453,-1.60196 -2.346827,-1.22064 z"
       id="path16"
       sodipodi:nodetypes="cccc" />
    <path
       style="fill:#1e65b8;fill-opacity:1;stroke-width:0.0184867"
       d="m 72.876851,118.94763 c -0.455792,-0.0914 -0.828951,-0.4689 -0.93502,-0.94605 -0.04019,-0.18077 -0.02731,-0.48329 0.02715,-0.63758 0.130345,-0.36939 0.426898,-0.67334 0.774029,-0.79335 0.18119,-0.0627 0.512405,-0.0622 0.697452,0.002 0.325869,0.11137 0.643735,0.32509 1.003877,0.67504 0.180102,0.17499 0.502157,0.53773 0.502157,0.5656 0,0.0122 -0.139285,0.16118 -0.309522,0.33105 -0.422201,0.42131 -0.733803,0.63415 -1.104117,0.75419 -0.120091,0.0389 -0.191178,0.0489 -0.378819,0.0535 -0.127043,0.003 -0.251775,0.002 -0.277185,-0.004 z"
       id="path20" />
    <path
       style="fill:#2c5aa0;stroke-width:0.0130722"
       d="m 72.813296,118.9235 c -0.433025,-0.11347 -0.791399,-0.5124 -0.871389,-0.96996 -0.0233,-0.13329 -0.01906,-0.36355 0.0091,-0.49385 0.05447,-0.25213 0.264518,-0.55696 0.499193,-0.72439 0.104653,-0.0748 0.247263,-0.14602 0.344294,-0.17222 0.118431,-0.032 0.36759,-0.0389 0.507844,-0.0145 0.343035,0.0603 0.753403,0.32244 1.189059,0.75991 0.217622,0.2185 0.437732,0.47215 0.437732,0.50441 0,0.0296 -0.434987,0.46738 -0.614416,0.61839 -0.369871,0.31132 -0.71534,0.47881 -1.043909,0.50607 -0.223985,0.0185 -0.34794,0.0149 -0.457497,-0.014 z"
       id="path28" />
    <path
       style="fill:#1e65b8;fill-opacity:1;stroke:#1e65b8;stroke-width:0;stroke-miterlimit:4;stroke-dasharray:none;stroke-opacity:1"
       d="m 72.813296,118.9235 c -0.432387,-0.11331 -0.791328,-0.51198 -0.870947,-0.96733 -0.02479,-0.14179 -0.01864,-0.38289 0.01317,-0.51627 0.09826,-0.41198 0.51459,-0.81974 0.909067,-0.89042 0.196942,-0.0352 0.46369,-0.015 0.627049,0.0479 0.416381,0.15991 0.857112,0.51511 1.343669,1.08286 0.05159,0.0603 0.0938,0.11991 0.0938,0.13268 0,0.0297 -0.434588,0.46719 -0.614415,0.61854 -0.369872,0.31133 -0.715341,0.47878 -1.043907,0.50605 -0.223988,0.0185 -0.347945,0.0149 -0.457499,-0.014 z"
       id="path30" />
    <path
       style="fill:#2c5aa0;stroke-width:0.0631345"
       d=""
       id="path32"
       transform="scale(0.26458333)" />
    <path
       style="fill:#2c5aa0;stroke-width:0.0631345"
       d=""
       id="path34"
       transform="scale(0.26458333)" />
    <path
       style="fill:#2c5aa0;stroke-width:0.0631345"
       d=""
       id="path36"
       transform="scale(0.26458333)" />
    <path
       style="fill:#2c5aa0;stroke-width:0.0631345"
       d=""
       id="path38"
       transform="scale(0.26458333)" />
    <path
       style="font-variation-settings:normal;opacity:1;vector-effect:none;fill:#1e65b8;fill-opacity:1;stroke:#1e65b8;stroke-width:0;stroke-linecap:butt;stroke-linejoin:miter;stroke-miterlimit:4;stroke-dasharray:none;stroke-dashoffset:0;stroke-opacity:1;stop-color:#000000;stop-opacity:1"
       d="m 74.527094,114.45155 c 0.113218,-0.43275 0.511554,-0.79199 0.966533,-0.87168 0.141662,-0.0247 0.382575,-0.0187 0.515837,0.0132 0.411605,0.0984 0.81904,0.51504 0.88965,0.90985 0.03527,0.19711 0.01494,0.46407 -0.04776,0.62758 -0.159792,0.41673 -0.514677,0.85783 -1.081954,1.3448 -0.06016,0.0515 -0.119807,0.0939 -0.132568,0.0939 -0.02965,0 -0.466771,-0.43495 -0.618006,-0.61493 -0.311061,-0.37019 -0.478391,-0.71595 -0.505624,-1.0448 -0.01856,-0.22418 -0.01481,-0.34824 0.01388,-0.4579 z"
       id="path30-9" />
    <path
       style="font-variation-settings:normal;opacity:1;vector-effect:none;fill:#1e65b8;fill-opacity:1;stroke:#1e65b8;stroke-width:0;stroke-linecap:butt;stroke-linejoin:miter;stroke-miterlimit:4;stroke-dasharray:none;stroke-dashoffset:0;stroke-opacity:1;stop-color:#000000;stop-opacity:1"
       d="m 78.282654,116.67659 c 0.432389,0.11332 0.79133,0.51199 0.870948,0.96734 0.02479,0.14181 0.01864,0.38292 -0.01318,0.51629 -0.09826,0.41196 -0.514591,0.81975 -0.909067,0.8904 -0.196944,0.0352 -0.463693,0.015 -0.627052,-0.0479 -0.416379,-0.15993 -0.85711,-0.51511 -1.343667,-1.08286 -0.05159,-0.0603 -0.0938,-0.11993 -0.0938,-0.1327 0,-0.0297 0.434587,-0.46715 0.614414,-0.61851 0.36987,-0.31133 0.715342,-0.47881 1.043909,-0.50605 0.223986,-0.0185 0.347944,-0.0149 0.457501,0.014 z"
       id="path30-8" />
  </g>
</svg>
